<?xml version="1.0" encoding="utf-8"?>
<!-- Generator: Adobe Illustrator 24.0.1, SVG Export Plug-In . SVG Version: 6.00 Build 0)  -->
<svg version="1.1"
	 id="Layer_1" image-rendering="optimizeQuality" text-rendering="geometricPrecision" shape-rendering="geometricPrecision"
	 xmlns="http://www.w3.org/2000/svg" xmlns:xlink="http://www.w3.org/1999/xlink" x="0px" y="0px" viewBox="0 0 8192 4890.8"
	 style="enable-background:new 0 0 8192 4890.8;" xml:space="preserve">
<style type="text/css">
	.st0{fill:#5F6368;}
	.st1{fill:#4285F4;}
	.st2{fill:#34A853;}
	.st3{fill:#FBBC04;}
	.st4{fill:#EA4335;}
</style>
<g>
	<path class="st0" d="M4095.9,2556v693.7h-220.1V1536.5h583.7c140.7-2.9,276.8,50.5,378,148.3c102.4,92.1,159.9,223.9,157.9,361.5
		c2.9,138.4-54.7,271.2-157.9,363.6c-102.1,97.3-228,145.9-378,145.9h-363.6V2556z M4095.9,1747.5v598H4465
		c81.8,2.4,160.9-29.7,217.8-88.6c115.6-112.4,118.2-297.3,5.8-412.9c-1.9-2-3.8-3.9-5.8-5.8c-56.2-60.1-135.5-93.2-217.8-90.9
		h-369.1L4095.9,1747.5z"/>
	<path class="st0" d="M5502.4,2039.3c162.7,0,291.1,43.5,385.2,130.4s141.2,206.1,141.1,357.6v722.4h-210.5V3087h-9.6
		c-91.1,134-212.3,200.9-363.6,200.9c-129.1,0-237.2-38.3-324.1-114.8c-84.5-71.2-132.4-176.6-130.4-287.1
		c0-121.3,45.8-217.8,137.5-289.4c91.7-71.6,214.1-107.5,367.2-107.7c130.7,0,238.3,23.9,322.9,71.8v-50.3
		c0.5-75.3-32.9-146.8-90.9-194.8c-58.2-52.5-134-81.2-212.4-80.2c-122.9,0-220.2,51.9-291.8,155.6l-193.8-122.1
		C5135.7,2115.8,5293.5,2039.3,5502.4,2039.3z M5217.7,2890.9c-0.3,56.8,26.9,110.3,73,143.5c48.7,38.3,109.1,58.6,171,57.4
		c92.9-0.2,181.9-37.1,247.5-102.8c72.9-68.6,109.4-149.1,109.4-241.5c-68.6-54.7-164.3-82-287.1-82c-89.4,0-163.9,21.6-223.6,64.7
		C5247.7,2773.9,5217.7,2827,5217.7,2890.9L5217.7,2890.9z"/>
	<path class="st0" d="M7237.1,2077.6l-734.9,1688.8H6275l272.7-590.9l-483.2-1097.9h239.2l349.2,842h4.8l339.7-842H7237.1z"/>
	<path class="st1" d="M3206.6,2406.4c0.1-67.1-5.6-134-16.9-200.1h-928.1v379h531.6c-22,122.3-93,230.4-196.6,299.1v246h317.3
		C3099.5,2959.2,3206.6,2705.9,3206.6,2406.4z"/>
	<path class="st2" d="M2261.5,3368.2c265.6,0,489.2-87.2,652.3-237.6l-317.3-246c-88.3,59.9-202,94-335,94
		c-256.7,0-474.6-173.1-552.5-406.2h-326.8V2826C1549.2,3158.4,1889.4,3368.2,2261.5,3368.2z"/>
	<path class="st3" d="M1709,2572.4c-41.2-122.2-41.2-254.5,0-376.7v-253.6h-326.8c-139.7,278-139.7,605.8,0,883.8L1709,2572.4z"/>
	<path class="st4" d="M2261.5,1789.4c140.4-2.3,276,50.7,377.5,147.6l0,0l280.9-280.9c-178.1-167.3-414.1-259.2-658.4-256.3
		c-372,0-712.3,209.8-879.3,542.3l326.8,253.6C1786.9,1962.5,2004.8,1789.4,2261.5,1789.4z"/>
</g>
</svg>
