<?xml version="1.0" encoding="utf-8"?>
<!-- Generator: Adobe Illustrator 24.0.1, SVG Export Plug-In . SVG Version: 6.00 Build 0)  -->
<svg version="1.1"
	 id="Layer_1" image-rendering="optimizeQuality" text-rendering="geometricPrecision" shape-rendering="geometricPrecision"
	 xmlns="http://www.w3.org/2000/svg" xmlns:xlink="http://www.w3.org/1999/xlink" x="0px" y="0px" viewBox="0 0 8192 4890.8"
	 style="enable-background:new 0 0 8192 4890.8;" xml:space="preserve">
<style type="text/css">
	.st0{fill-rule:evenodd;clip-rule:evenodd;fill:#DE2C1D;}
	.st1{fill-rule:evenodd;clip-rule:evenodd;fill:#ED6100;}
	.st2{fill-rule:evenodd;clip-rule:evenodd;fill:#F79F06;}
</style>
<path class="st0" d="M3491.8,2438.1c0-455.1,212.6-860.2,543.6-1122.5c-244.1-193.4-552.4-309.1-888-309.1
	c-790.6,0-1431.6,641-1431.6,1431.6c0,790.6,640.9,1431.6,1431.6,1431.6c335.6,0,643.9-115.7,888-309.1
	C3704.4,3298.3,3491.8,2893.2,3491.8,2438.1L3491.8,2438.1z"/>
<path class="st1" d="M3491.8,2438.1c0,455.1,212.6,860.3,543.6,1122.5c331-262.2,543.6-667.4,543.6-1122.5
	s-212.6-860.2-543.6-1122.5C3704.4,1577.9,3491.8,1983,3491.8,2438.1z"/>
<path class="st2" d="M4923.4,1006.5c-335.6,0-643.9,115.8-888,309.1c331,262.2,543.6,667.4,543.6,1122.5
	c0,455.1-212.6,860.3-543.6,1122.5c244.1,193.4,552.4,309.1,888,309.1c790.6,0,1431.6-640.9,1431.6-1431.6
	S5714.1,1006.5,4923.4,1006.5L4923.4,1006.5z M6455.6,3264.4v-60.8l-19.7,52.5h-21.8l-19.7-52.3v60.7h-20.5v-87.6h29.4l21.8,56.1
	l21.6-56.1h29.5v87.6H6455.6L6455.6,3264.4z M6308.5,3264.4v-68.7h-27.8v-18.9h76.1v18.9H6329v68.7H6308.5L6308.5,3264.4z"/>
</svg>
